<svg xmlns="http://www.w3.org/2000/svg" viewBox="0 0 48 48" fill="none">
  <!-- Pathfinder emerald compass icon -->
  <defs>
    <linearGradient id="pf-bg" x1="0" y1="0" x2="1" y2="1">
      <stop offset="0%" stop-color="#064e3b"/>
      <stop offset="100%" stop-color="#047857"/>
    </linearGradient>
  </defs>
  <rect width="48" height="48" rx="10" fill="url(#pf-bg)" stroke="#34d399" stroke-width="0.5"/>
  <!-- Compass rose -->
  <circle cx="24" cy="24" r="15" fill="none" stroke="#34d399" stroke-width="1" opacity="0.5"/>
  <circle cx="24" cy="24" r="11" fill="none" stroke="#6ee7b7" stroke-width="1" opacity="0.4"/>
  <!-- Cardinal points -->
  <path d="M24 6 L26 17 L24 15 L22 17 Z" fill="#a7f3d0"/>
  <path d="M24 38 L26 27 L24 29 L22 27 Z" fill="#34d399"/>
  <path d="M6 24 L17 22 L15 24 L17 26 Z" fill="#a7f3d0"/>
  <path d="M38 24 L27 22 L29 24 L27 26 Z" fill="#34d399"/>
  <!-- Center gem -->
  <circle cx="24" cy="24" r="3" fill="#6ee7b7"/>
  <circle cx="24" cy="24" r="1.5" fill="#a7f3d0"/>
  <!-- Diagonal cross -->
  <line x1="12" y1="12" x2="20" y2="20" stroke="#34d399" stroke-width="0.8" opacity="0.3"/>
  <line x1="36" y1="12" x2="28" y2="20" stroke="#34d399" stroke-width="0.8" opacity="0.3"/>
  <line x1="12" y1="36" x2="20" y2="28" stroke="#34d399" stroke-width="0.8" opacity="0.3"/>
  <line x1="36" y1="36" x2="28" y2="28" stroke="#34d399" stroke-width="0.8" opacity="0.3"/>
</svg>
